<svg xmlns="http://www.w3.org/2000/svg" viewBox="0 0 900 520" role="img" aria-labelledby="title desc">
  <title id="title">EuropaService logo</title>
  <desc id="desc">Logo EuropaService con tetto blu, dettaglio rosso, scritta nera e cane giallo.</desc>
  <rect width="900" height="520" fill="#ffffff"/>
  <path d="M314 63h116c12 0 18 6 18 18v101l-30-82H343l-30 113V81c0-12 6-18 18-18z" fill="#ef1d25"/>
  <path d="M74 266C225 213 382 163 555 105c34-11 52-8 75 19l171 201-175-116c-45-29-87-34-141-18L74 266z" fill="#0757b8"/>
  <path d="M74 266C250 211 431 151 612 91c20-7 32-2 50 17L826 299 654 128c-21-21-32-24-61-14L74 266z" fill="#0a49a3" opacity=".94"/>
  <text x="70" y="364" fill="#111111" font-family="Arial Rounded MT Bold, Arial, Helvetica, sans-serif" font-size="93" font-weight="800" letter-spacing="7">EUROPA SERVICE</text>
  <g fill="#ffcc00">
    <path d="M110 430c40-11 74-17 108-27 44-13 84-20 127-8 21 6 45 0 74-13 53-24 116-32 167-17 24 8 57 7 97-4 26-7 45-7 57-1 21 10 41 13 64 10 22-3 41 1 57 14 8 7 11 15 8 23-9 3-22 1-37-5-9-4-18-5-28-3 12 9 21 18 26 27-19 5-38 3-57-6-19-9-37-11-55-7-35 7-70 8-104 1-37-7-74-8-111-3-53 8-107 7-160-1-54-8-104-1-151 20-42 18-85 24-130 18-34-4-67-11-98-18z"/>
    <path d="M92 433c-28-1-58-8-87-20 42-4 79-14 111-31-15 18-21 35-24 51z"/>
    <path d="M657 352c31-3 56-23 75-59 6 27 2 50-11 70l-64-11z"/>
    <path d="M703 354c42-18 82-31 121-36 34-4 52 2 56 18-33 5-58 13-75 26 31-5 55-1 72 10-28 15-67 19-117 12l-57-30z"/>
    <path d="M811 360c26 6 48 20 65 41-28 0-51-12-70-35l5-6z"/>
  </g>
  <g fill="#ffffff">
    <rect x="647" y="356" width="15" height="58" rx="3"/>
    <circle cx="654.5" cy="368" r="3.5" fill="#ffcc00"/>
    <circle cx="654.5" cy="382" r="3.5" fill="#ffcc00"/>
    <circle cx="654.5" cy="396" r="3.5" fill="#ffcc00"/>
    <path d="M812 348c18-8 35-7 50 1-19 2-34 8-46 18l-4-19z"/>
    <path d="M771 354c-14 1-22 10-25 26-8-18-4-31 12-39l13 13z"/>
    <path d="M828 384c18-1 33 3 46 12-17 1-32-3-46-12z"/>
  </g>
</svg>
