<svg xmlns="http://www.w3.org/2000/svg" viewBox="0 0 980 220" role="img" aria-labelledby="title desc">
  <title id="title">EuropaService logo</title>
  <desc id="desc">Logo EuropaService con lupo giallo leggibile a sinistra, tetto blu, dettaglio rosso separato sopra il tetto e scritta Europa Service a destra.</desc>

  <path id="symbol-red-detail" d="M165 2h48c7 0 11 4 11 11v31l-13-24h-34l-12 33V13c0-7 4-11 11-11z" fill="#ef1d25"/>

  <g id="symbol-roof" transform="translate(34 42) scale(.48)">
    <path d="M30 145C188 98 348 52 520 4c30-8 48-4 70 18l182 136-176-81c-46-21-86-23-139-9L30 145z" fill="#0757b8"/>
    <path d="M30 145C208 95 392 42 572-6c18-5 31-1 48 15l171 138L621 25c-22-16-35-18-64-10L30 145z" fill="#0a49a3" opacity=".94"/>
  </g>

  <g id="symbol-wolf" fill="#ffcc00">
    <path d="M20 165c43-17 83-25 121-24 20 1 39 6 57 9 18 3 35 4 52-2 13-4 24-12 36-23l14-13 9 18c19-7 40-7 59 1 18 8 31 22 39 41l-45-11-17 16-25-9-15 18-31-10-19 12-41-8-38 11-41-4-35 9-33-8-31 10-17-9 16-10-31-4 21-11-21-10z"/>
    <path d="M282 134l22-40 13 29 31-5c23-3 43 9 55 30l7 13-48-12-14 15-25-9-17 17-24-9-24 10 9-23-21-6 23-6z"/>
    <path d="M314 118l-9-24-12 32z"/>
    <path d="M348 122l19-3 22 23-32-8z"/>
    <path d="M75 187l-26 19 43-8 23-14z"/>
    <path d="M157 188l-22 18 39-9 20-14z"/>
    <path d="M238 183l-19 22 39-13 16-16z"/>
    <path d="M321 169l-21 29 43-18 13-20z"/>
    <circle cx="341" cy="135" r="4.5" fill="#111111"/>
    <path d="M383 145l19 5-17 7z" fill="#111111"/>
  </g>

  <text x="430" y="150" fill="#111111" font-family="Arial Rounded MT Bold, Arial, Helvetica, sans-serif" font-size="78" font-weight="800" letter-spacing="4" textLength="510" lengthAdjust="spacingAndGlyphs">EUROPA SERVICE</text>
</svg>
