<svg xmlns="http://www.w3.org/2000/svg" viewBox="0 0 980 220" role="img" aria-labelledby="title desc">
  <title id="title">EuropaService logo</title>
  <desc id="desc">Logo EuropaService con lupo giallo completo a sinistra, tetto blu, dettaglio rosso separato sopra il tetto e scritta Europa Service a destra.</desc>

  <path id="symbol-red-detail" d="M165 2h48c7 0 11 4 11 11v31l-13-24h-34l-12 33V13c0-7 4-11 11-11z" fill="#ef1d25"/>

  <g id="symbol-roof" transform="translate(34 42) scale(.48)">
    <path d="M30 145C188 98 348 52 520 4c30-8 48-4 70 18l182 136-176-81c-46-21-86-23-139-9L30 145z" fill="#0757b8"/>
    <path d="M30 145C208 95 392 42 572-6c18-5 31-1 48 15l171 138L621 25c-22-16-35-18-64-10L30 145z" fill="#0a49a3" opacity=".94"/>
  </g>

  <g id="symbol-wolf" transform="translate(18 106) scale(1.66)" fill="#ffcc00" fill-rule="evenodd">
    <path d="M170,16L162,16L155,9L153,5L153,9L154,10L154,12L153,13L149,8L146,7L149,12L150,16L152,18L151,19L150,19L146,14L131,14L130,15L126,15L125,16L121,16L120,17L114,17L113,16L109,16L103,13L106,17L105,18L103,18L105,20L108,21L109,22L108,23L101,23L100,24L97,24L86,28L78,20L75,19L78,24L78,26L77,27L72,23L72,25L71,26L66,24L53,24L52,25L49,25L33,31L25,27L27,29L26,30L20,29L21,30L20,32L19,31L14,31L13,30L12,30L11,32L5,29L9,32L10,34L9,35L2,35L3,36L7,36L8,37L6,39L0,41L8,41L9,42L7,44L4,45L9,45L10,46L9,47L11,46L15,47L24,39L26,39L27,40L25,44L29,40L30,42L37,36L39,36L40,35L43,35L44,34L62,34L63,35L66,35L67,36L72,37L73,38L68,41L75,40L76,41L73,44L77,42L82,42L83,41L102,41L106,39L107,41L105,44L113,38L115,39L112,43L126,37L138,36L139,37L147,38L149,40L143,45L149,43L150,44L146,49L147,49L152,46L154,46L158,44L165,37L166,38L166,41L169,41L170,40Z M177,15L177,40L178,41L192,41L193,42L205,42L206,41L207,42L220,42L222,41L223,36L219,37L217,35L228,31L235,36L235,33L233,31L226,30L225,31L218,32L216,30L223,27L226,27L228,20L208,20L204,15L195,15L194,14L192,14L190,10L189,0L188,0L185,4L183,13L181,15Z M172,15L172,41L175,41L175,15Z M206,20L207,19L208,20L224,20L225,21L224,22L220,22L219,23L214,23L213,22L211,22L209,24Z M188,2L189,3L190,10L191,11L191,14L189,17L187,15L187,11L186,10L186,7Z M202,15L205,16L207,18L206,20L205,19L203,19L203,23L204,24L203,26L200,22L200,18Z M212,25L213,26L209,30L209,31L206,33L205,32L207,29L211,25Z M172,29L174,28L175,29L175,31L173,32L172,31Z M172,38L174,37L175,39L173,40Z M172,34L174,33L175,35L173,36Z M172,25L174,24L175,26L173,27Z M172,21L174,20L175,22L173,23Z M172,17L174,16L175,18L173,19Z M214,32L215,31L217,31L218,32L217,33L215,33Z M12,46L13,45L15,46L14,47Z M16,42L17,41L18,43L17,44Z M115,37L116,36L118,37L117,38Z M105,18L106,17L108,18L107,19Z M221,32L222,31L224,32L223,33Z M210,29L211,28L212,30L211,31Z M212,25L213,24L215,25L214,26Z M14,45L15,44L16,45L15,46Z M9,45L10,44L11,45L10,46Z M15,44L16,43L17,44L16,45Z M149,43L150,42L151,43L150,44Z M75,40L76,39L77,40L76,41Z M29,40L30,39L31,40L30,41Z M114,38L115,37L116,38L115,39Z M165,37L166,36L167,37L166,38Z M87,28L88,27L89,28L88,29Z M151,19L152,18L153,19L152,20Z M204,33L205,32L206,33L205,34Z M209,31L210,30L211,31L210,32Z M211,28L212,27L213,28L212,29Z"/>
  </g>

  <text x="430" y="150" fill="#111111" font-family="Arial Rounded MT Bold, Arial, Helvetica, sans-serif" font-size="78" font-weight="800" letter-spacing="4" textLength="510" lengthAdjust="spacingAndGlyphs">EUROPA SERVICE</text>
</svg>
