<svg xmlns="http://www.w3.org/2000/svg" viewBox="0 0 980 220" role="img" aria-labelledby="title desc">
  <title id="title">EuropaService logo</title>
  <desc id="desc">Logo EuropaService con lupo giallo leggibile a sinistra, tetto blu, dettaglio rosso separato sopra il tetto e scritta Europa Service a destra.</desc>

  <path id="symbol-red-detail" d="M165 2h48c7 0 11 4 11 11v31l-13-24h-34l-12 33V13c0-7 4-11 11-11z" fill="#ef1d25"/>

  <g id="symbol-roof" transform="translate(34 42) scale(.48)">
    <path d="M30 145C188 98 348 52 520 4c30-8 48-4 70 18l182 136-176-81c-46-21-86-23-139-9L30 145z" fill="#0757b8"/>
    <path d="M30 145C208 95 392 42 572-6c18-5 31-1 48 15l171 138L621 25c-22-16-35-18-64-10L30 145z" fill="#0a49a3" opacity=".94"/>
  </g>

  <g id="symbol-wolf" fill="#ffcc00">
    <path d="M18 161c38-18 79-27 124-27 24 0 47 4 69 8 25 4 48 4 69-5 12-5 23-12 34-23l14-14 8 23c24 1 46 10 63 26l18 17-32-2-18 15-25-8-20 18-30-11-26 13-42-8-39 12-42-6-34 11-37-8-30 10-21-8 20-11-36-3 26-13-25-6z"/>
    <path d="M309 130l17-43 15 35 28-1c22 0 42 12 56 34l9 14-43-8-20 15-24-9-22 19-18-14-28 11 11-23-25-5 28-10z"/>
    <path d="M326 94l-18 42 32-13z"/>
    <path d="M370 124l24 7 30 27-38-10z"/>
    <path d="M75 188l-29 21 47-9 27-17z"/>
    <path d="M156 189l-24 20 42-10 23-16z"/>
    <path d="M238 184l-23 25 45-15 19-19z"/>
    <path d="M329 169l-25 34 49-22 15-23z"/>
    <circle cx="356" cy="137" r="4" fill="#111111"/>
    <path d="M404 149l19 6-17 7z" fill="#111111"/>
    <path d="M333 149c14-7 29-7 46 0" fill="none" stroke="#d5a900" stroke-width="4" stroke-linecap="round"/>
  </g>

  <text x="445" y="150" fill="#111111" font-family="Arial Rounded MT Bold, Arial, Helvetica, sans-serif" font-size="78" font-weight="800" letter-spacing="4" textLength="490" lengthAdjust="spacingAndGlyphs">EUROPA SERVICE</text>
</svg>
