<svg xmlns="http://www.w3.org/2000/svg" viewBox="0 0 980 220" role="img" aria-labelledby="title desc">
  <title id="title">EuropaService logo footer</title>
  <desc id="desc">Logo EuropaService per footer scuro con lupo originale a sinistra, tetto blu e dettaglio rosso separato sopra il tetto, scritta Europa Service dorata a destra.</desc>

  <path id="symbol-red-detail" d="M150 4h44c7 0 10 3 10 10v28l-12-22h-31l-11 30V14c0-7 3-10 10-10z" fill="#ef1d25"/>

  <g id="symbol-roof" transform="translate(24 46) scale(.42)">
    <path d="M30 145C188 98 348 52 520 4c30-8 48-4 70 18l182 136-176-81c-46-21-86-23-139-9L30 145z" fill="#0757b8"/>
    <path d="M30 145C208 95 392 42 572-6c18-5 31-1 48 15l171 138L621 25c-22-16-35-18-64-10L30 145z" fill="#0a49a3" opacity=".94"/>
  </g>

  <path id="symbol-wolf" fill="#ffcc00" fill-rule="evenodd" d="M262 139.8L262 174.6L267.7 174.6L267.9 139.2ZM264.2 169.5L265.4 169.5L266.2 170.3L266.2 171.7L265.4 172.6L263.7 172ZM264.2 163.8L266.2 164.3L266.2 166L265.4 166.9L264.2 166.9L263.7 166ZM264.5 157.8L265.7 157.8L266.5 158.9L266.5 160.1L265.4 161.2L264.2 161.2L263.7 160.3L263.7 158.6ZM264.2 152.4L266.2 152.6L266.2 154.6L265.7 155.2L264 154.9L263.7 152.9ZM264.2 146.7L266.2 147.2L266.2 149.2L265.7 149.8L264.2 149.8L263.7 148.9ZM264.5 141L266.2 141.5L266.2 143.5L265.7 144.1L264.5 144.1L263.7 143.2L263.7 141.8ZM260.2 140.4L252.6 141L246.6 138.7L234.9 125L235.7 134.4L224.3 127.3L232.3 141.8L232 143.5L224.3 137.3L210.9 137.3L191 141L181.9 141.2L173.9 139.8L164.2 136.1L169 143.2L163.9 142.7L171 148.4L170.8 149.8L164.8 149.5L141.4 155.8L130.6 146.4L125.2 144.7L124 145.2L127.4 148.7L128.6 154.1L125.4 153.2L120 148.7L120.6 153.5L109.5 150.6L100.4 150.4L88.7 152.6L67 159.8L55 155.2L55.3 158.6L46.8 157.5L47.6 160.9L37.4 159.2L33.7 160.6L25.7 157.5L32.5 164.9L19.7 164.9L22.8 167.5L28 168.6L28.3 170L18 174L23.4 175.4L30 175.2L29.7 177.2L23.1 180L32.8 180L33.1 181.4L30.8 183.7L34.8 182L41.1 182.9L51.9 173.7L55.6 172.6L53.6 180.3L60.2 173.5L61.6 173.7L61.3 176.9L73 168.3L87.3 165.5L104.4 165.8L119.5 169.2L120.6 171.2L116.3 173.2L114.6 175.4L125.4 173.2L125.7 174.6L122 178.9L134 175.7L159.4 175.2L168.8 173.5L167.1 179.2L180.7 170.9L181 172.3L176.5 178.6L195.6 170.6L211.5 168.6L228.9 172L220.9 180.3L229.8 178.3L226 186L243.2 178.6L252.3 170.3L253.7 170.6L253.1 174.9L260.2 174.3ZM315.5 156.9L315.8 158.3L315.3 159.2L313.5 159.8L313.3 158.3L314.4 156.9ZM303.9 147.5L305.3 147.8L305.6 151.2L304.1 150.9ZM321 147.5L334.1 146.9L334.3 148.4L323 149.8L321 148.7ZM313.5 147.2L320.7 146.7L321 148.1L314.7 149.8L313.5 148.4ZM309.6 142.4L309.3 143.8L307 144.1L305 146.7L303.6 146.4L303.9 143L305 140.7L306.7 140.7ZM285 123.9L286.5 124.1L288.7 135.5L288.5 139L287 141.5L285.6 141.2L284.2 136.4L283.9 128.4Z"/>

  <text x="385" y="146" fill="#ffcc00" font-family="Arial Rounded MT Bold, Arial, Helvetica, sans-serif" font-size="78" font-weight="800" letter-spacing="4" textLength="555" lengthAdjust="spacingAndGlyphs">EUROPA SERVICE</text>
</svg>
